<svg width="1024" height="1024" viewBox="0 0 1024 1024" fill="none" xmlns="http://www.w3.org/2000/svg">
<rect width="1024" height="1024" fill="#1E1E1E"/>
<rect width="1024" height="1024" fill="black"/>
<path d="M512.207 496.808V525.779M554.603 482.322V540.264M597 496.808V525.779M639.397 467.837V554.75M681.793 424.38V598.207M724.19 482.322V540.264M766.587 496.808V525.779" stroke="white" stroke-width="18" stroke-linecap="round" stroke-linejoin="round"/>
<rect x="312.942" y="374.917" width="203.504" height="274.165" stroke="black"/>
<path fill-rule="evenodd" clip-rule="evenodd" d="M375.56 411.993C375.56 407.026 371.053 403.193 366.29 404.602C358.333 406.956 352.585 410.324 347.931 415.03C343.253 419.76 339.912 425.61 337.583 433.723C336.215 438.485 340.043 442.969 344.998 442.969H367.56C371.978 442.969 375.56 439.388 375.56 434.969V411.993ZM401.444 400.1C397.221 400.266 393.936 403.768 393.936 407.994V434.969C393.936 439.388 397.518 442.969 401.936 442.969H428.815C433.233 442.969 436.815 439.388 436.815 434.969V407.62C436.815 403.199 433.227 399.613 428.805 399.63C418.569 399.67 409.515 399.783 401.444 400.1ZM463.201 399.63C458.779 399.613 455.191 403.199 455.191 407.62V434.969C455.191 439.388 458.773 442.969 463.191 442.969H490.07C494.488 442.969 498.07 439.388 498.07 434.969V407.994C498.07 403.768 494.785 400.266 490.562 400.1C482.491 399.783 473.437 399.67 463.201 399.63ZM490.562 628.311C494.785 628.145 498.07 624.643 498.07 620.417V593.442C498.07 589.023 494.488 585.442 490.07 585.442H463.191C458.773 585.442 455.191 589.023 455.191 593.442V620.791C455.191 625.212 458.779 628.798 463.2 628.781C473.437 628.741 482.491 628.628 490.562 628.311ZM428.806 628.781C433.227 628.798 436.815 625.212 436.815 620.791V593.442C436.815 589.023 433.233 585.442 428.815 585.442H401.936C397.518 585.442 393.936 589.023 393.936 593.442V620.417C393.936 624.643 397.221 628.145 401.444 628.311C409.515 628.628 418.569 628.741 428.806 628.781ZM366.29 623.809C371.053 625.218 375.56 621.385 375.56 616.418V593.442C375.56 589.023 371.978 585.442 367.56 585.442H344.998C340.043 585.442 336.215 589.926 337.583 594.688C339.912 602.801 343.253 608.651 347.931 613.381C352.584 618.087 358.333 621.455 366.29 623.809ZM455.55 486.307C455.755 486.446 455.959 486.586 456.165 486.725C456.355 486.854 456.545 486.983 456.734 487.111C462.733 491.188 468.096 494.832 471.865 498.343C475.957 502.155 479.693 507.19 479.693 514.206C479.693 521.221 475.957 526.256 471.865 530.068C468.096 533.579 462.733 537.223 456.734 541.3L456.165 541.685C455.961 541.825 455.755 541.965 455.551 542.104C449.504 546.213 444.061 549.915 439.487 552.055C434.681 554.302 427.864 556.221 421.335 551.85C415.336 547.836 413.68 541.128 413 535.756C412.312 530.316 412.312 523.169 412.313 514.842V513.569C412.312 505.242 412.312 498.095 413 492.655C413.68 487.283 415.336 480.575 421.335 476.56C427.864 472.19 434.681 474.109 439.487 476.356C444.06 478.496 449.504 482.197 455.55 486.307ZM431.487 493.368C431.513 493.238 431.652 493.167 431.772 493.222V493.222C434.846 494.661 439.053 497.485 445.915 502.149C452.663 506.735 456.812 509.587 459.413 512.01C460.627 513.141 461.096 513.819 461.264 514.124V514.124C461.292 514.175 461.292 514.236 461.264 514.287V514.287C461.096 514.592 460.627 515.27 459.413 516.401C456.812 518.824 452.663 521.676 445.915 526.262C439.053 530.926 434.846 533.75 431.772 535.189V535.189C431.652 535.244 431.513 535.173 431.487 535.043C431.4 534.598 431.311 534.055 431.228 533.397C430.708 529.284 430.689 523.349 430.689 514.206C430.689 505.063 430.708 499.127 431.228 495.014C431.311 494.356 431.4 493.813 431.487 493.368Z" fill="white"/>
<path d="M498.939 649.083H366.942C337.119 649.083 312.942 624.906 312.942 595.083V428.917C312.942 399.094 337.119 374.917 366.942 374.917H498.939" stroke="white" stroke-width="15"/>
</svg>
